<?xml version="1.0" encoding="utf-8"?>
<!-- Generator: Adobe Illustrator 23.0.3, SVG Export Plug-In . SVG Version: 6.00 Build 0)  -->
<svg version="1.1" id="Layer_1" xmlns="http://www.w3.org/2000/svg" xmlns:xlink="http://www.w3.org/1999/xlink" x="0px" y="0px"
	 viewBox="0 0 482.9 102.6" style="enable-background:new 0 0 482.9 102.6;" xml:space="preserve">
<style type="text/css">
	.st0{clip-path:url(#SVGID_2_);}
	.st1{clip-path:url(#SVGID_4_);}
	.st2{clip-path:url(#SVGID_6_);}
	.st3{clip-path:url(#SVGID_8_);}
	.st4{clip-path:url(#SVGID_10_);}
	.st5{clip-path:url(#SVGID_12_);fill-rule:evenodd;clip-rule:evenodd;}
	.st6{clip-path:url(#SVGID_14_);}
	.st7{clip-path:url(#SVGID_16_);fill-rule:evenodd;clip-rule:evenodd;}
	.st8{clip-path:url(#SVGID_18_);}
	.st9{clip-path:url(#SVGID_20_);fill-rule:evenodd;clip-rule:evenodd;}
	.st10{clip-path:url(#SVGID_22_);}
	.st11{clip-path:url(#SVGID_24_);fill-rule:evenodd;clip-rule:evenodd;}
	.st12{clip-path:url(#SVGID_26_);}
	.st13{clip-path:url(#SVGID_28_);fill-rule:evenodd;clip-rule:evenodd;}
	.st14{clip-path:url(#SVGID_30_);}
	.st15{clip-path:url(#SVGID_32_);fill-rule:evenodd;clip-rule:evenodd;}
	.st16{clip-path:url(#SVGID_34_);}
	.st17{clip-path:url(#SVGID_36_);fill-rule:evenodd;clip-rule:evenodd;}
	.st18{clip-path:url(#SVGID_38_);}
	.st19{clip-path:url(#SVGID_40_);fill-rule:evenodd;clip-rule:evenodd;}
	.st20{clip-path:url(#SVGID_42_);}
	.st21{clip-path:url(#SVGID_44_);fill-rule:evenodd;clip-rule:evenodd;}
	.st22{clip-path:url(#SVGID_46_);}
	.st23{clip-path:url(#SVGID_48_);fill-rule:evenodd;clip-rule:evenodd;}
	.st24{clip-path:url(#SVGID_50_);}
	.st25{clip-path:url(#SVGID_52_);fill-rule:evenodd;clip-rule:evenodd;}
	.st26{clip-path:url(#SVGID_54_);}
	.st27{clip-path:url(#SVGID_56_);}
	.st28{clip-path:url(#SVGID_58_);}
	.st29{clip-path:url(#SVGID_60_);fill-rule:evenodd;clip-rule:evenodd;}
	.st30{clip-path:url(#SVGID_62_);}
	.st31{clip-path:url(#SVGID_64_);}
	.st32{clip-path:url(#SVGID_66_);}
	.st33{clip-path:url(#SVGID_68_);fill-rule:evenodd;clip-rule:evenodd;}
</style>
<title>Brainstation Logo</title>
<g>
	<defs>
		<rect id="SVGID_1_" x="0.7" y="0.4" width="482.9" height="102.6"/>
	</defs>
	<clipPath id="SVGID_2_">
		<use xlink:href="#SVGID_1_"  style="overflow:visible;"/>
	</clipPath>
	<g class="st0">
		<defs>
			<rect id="SVGID_3_" x="0.7" y="0.4" width="482.9" height="102.6"/>
		</defs>
		<clipPath id="SVGID_4_">
			<use xlink:href="#SVGID_3_"  style="overflow:visible;"/>
		</clipPath>
		<path class="st1" d="M126.7,68.2h7.3c4.2,0,10.2-0.8,10.2-6.9c0-4.8-3.3-6.5-9.9-6.5h-7.7V68.2z M126.7,47.9h7.3
			c5.4,0,8.4-2.3,8.4-6.2c0-4.1-2.9-5.7-9.1-5.7h-6.5V47.9z M118.6,29.3h17.9c6.9,0,14.1,3.2,14.1,11.5c0,5.2-3.2,8.6-8,10V51
			c5.8,0.8,9.9,4.7,9.9,10.8c0,10-8.7,13.3-17.4,13.3h-16.5V29.3z"/>
	</g>
</g>
<g>
	<defs>
		<path id="SVGID_5_" d="M164.9,49.2h-0.1V44h-7.5v31.1h7.8V58.5c0-2.3,1.4-8.3,8.4-8.3c0.7,0,1.4,0.1,2.4,0.3v-7.1
			c-0.5-0.1-1.3-0.2-1.9-0.2C169.9,43.1,166.6,45.7,164.9,49.2"/>
	</defs>
	<clipPath id="SVGID_6_">
		<use xlink:href="#SVGID_5_"  style="overflow:visible;"/>
	</clipPath>
	<g class="st2">
		<defs>
			<rect id="SVGID_7_" x="0.7" y="0.4" width="482.9" height="102.6"/>
		</defs>
		<clipPath id="SVGID_8_">
			<use xlink:href="#SVGID_7_"  style="overflow:visible;"/>
		</clipPath>
		<rect x="143.8" y="29.6" class="st3" width="45.5" height="59"/>
	</g>
</g>
<g>
	<defs>
		<rect id="SVGID_9_" x="0.7" y="0.4" width="482.9" height="102.6"/>
	</defs>
	<clipPath id="SVGID_10_">
		<use xlink:href="#SVGID_9_"  style="overflow:visible;"/>
	</clipPath>
	<g class="st4">
		<defs>
			<rect id="SVGID_11_" x="0.7" y="0.4" width="482.9" height="102.6"/>
		</defs>
		<clipPath id="SVGID_12_">
			<use xlink:href="#SVGID_11_"  style="overflow:visible;"/>
		</clipPath>
		<path class="st5" d="M197.3,60.9h-1.8c-4.9,0-11.9,0.6-11.9,5.2c0,3,2.8,3.9,5.4,3.9c5.3,0,8.2-3,8.2-8V60.9z M197.4,71.1h-0.2
			c-1.6,2.7-5.2,4.7-9.7,4.7c-5,0-11.7-2.4-11.7-9.6c0-9.3,11.7-10.5,21.4-10.5v-0.8c0-3.8-3.2-5.7-7.1-5.7c-3.3,0-6.5,1.6-8.5,3.6
			l-4-4.7c3.5-3.2,8.4-4.9,13.2-4.9c11.2,0,13.9,6.9,13.9,13.1v18.9h-7.3V71.1z"/>
	</g>
</g>
<g>
	<defs>
		<rect id="SVGID_13_" x="0.7" y="0.4" width="482.9" height="102.6"/>
	</defs>
	<clipPath id="SVGID_14_">
		<use xlink:href="#SVGID_13_"  style="overflow:visible;"/>
	</clipPath>
	<g class="st6">
		<defs>
			<rect id="SVGID_15_" x="0.7" y="0.4" width="482.9" height="102.6"/>
		</defs>
		<clipPath id="SVGID_16_">
			<use xlink:href="#SVGID_15_"  style="overflow:visible;"/>
		</clipPath>
		<path class="st7" d="M212.1,75.1h7.8V44h-7.8V75.1z M215.9,28.8c2.9,0,5.1,2,5.1,4.7s-2.2,4.7-5.1,4.7c-2.9,0-4.9-2.2-4.9-4.7
			S213,28.8,215.9,28.8"/>
	</g>
</g>
<g>
	<defs>
		<rect id="SVGID_17_" x="0.7" y="0.4" width="482.9" height="102.6"/>
	</defs>
	<clipPath id="SVGID_18_">
		<use xlink:href="#SVGID_17_"  style="overflow:visible;"/>
	</clipPath>
	<g class="st8">
		<defs>
			<rect id="SVGID_19_" x="0.7" y="0.4" width="482.9" height="102.6"/>
		</defs>
		<clipPath id="SVGID_20_">
			<use xlink:href="#SVGID_19_"  style="overflow:visible;"/>
		</clipPath>
		<path class="st9" d="M227.4,44.1l7.4,0l0,5h0.1c1.4-3.1,5-5.9,9.6-5.9c8.1,0,11.5,6.2,11.5,12.5l0.1,19.4l-7.8,0l0-17.2
			c0-3.7-0.9-8.3-5.9-8.3c-4.9,0-7.2,4.3-7.2,8.4l0,17.1l-7.8,0L227.4,44.1"/>
	</g>
</g>
<g>
	<defs>
		<rect id="SVGID_21_" x="0.7" y="0.4" width="482.9" height="102.6"/>
	</defs>
	<clipPath id="SVGID_22_">
		<use xlink:href="#SVGID_21_"  style="overflow:visible;"/>
	</clipPath>
	<g class="st10">
		<defs>
			<rect id="SVGID_23_" x="0.7" y="0.4" width="482.9" height="102.6"/>
		</defs>
		<clipPath id="SVGID_24_">
			<use xlink:href="#SVGID_23_"  style="overflow:visible;"/>
		</clipPath>
		<path class="st11" d="M285.7,38.9c-1.8-2.3-5.2-3.9-8.4-3.9c-3.8,0-8.1,1.8-8.1,6.3c0,4.2,3.6,5.4,8.8,7.1
			c5.9,1.8,13.4,4.4,13.4,13.4c0,9.8-7.7,14.6-16.7,14.6c-6,0-12.1-2.3-15.8-6.5l5.8-5.4c2.3,3.1,6.4,5,10,5c3.8,0,8.3-1.9,8.3-6.8
			c0-4.8-4.8-6.1-10.6-8c-5.6-1.7-11.6-4.5-11.6-13c0-9.3,8.5-13.5,16.8-13.5c4.6,0,9.9,1.6,13.4,4.9L285.7,38.9"/>
	</g>
</g>
<g>
	<defs>
		<rect id="SVGID_25_" x="0.7" y="0.4" width="482.9" height="102.6"/>
	</defs>
	<clipPath id="SVGID_26_">
		<use xlink:href="#SVGID_25_"  style="overflow:visible;"/>
	</clipPath>
	<g class="st12">
		<defs>
			<rect id="SVGID_27_" x="0.7" y="0.4" width="482.9" height="102.6"/>
		</defs>
		<clipPath id="SVGID_28_">
			<use xlink:href="#SVGID_27_"  style="overflow:visible;"/>
		</clipPath>
		<path class="st13" d="M292.8,50.3V44h5.4v-9h7.6v9h7.8v6.2h-7.8v14.4c0,2.8,0.6,4.8,4.1,4.8c1,0,2.4-0.2,3.3-0.6l0.3,6.1
			c-1.4,0.5-3.4,0.8-5.2,0.8c-8.2,0-10.1-5-10.1-11V50.3H292.8"/>
	</g>
</g>
<g>
	<defs>
		<rect id="SVGID_29_" x="0.7" y="0.4" width="482.9" height="102.6"/>
	</defs>
	<clipPath id="SVGID_30_">
		<use xlink:href="#SVGID_29_"  style="overflow:visible;"/>
	</clipPath>
	<g class="st14">
		<defs>
			<rect id="SVGID_31_" x="0.7" y="0.4" width="482.9" height="102.6"/>
		</defs>
		<clipPath id="SVGID_32_">
			<use xlink:href="#SVGID_31_"  style="overflow:visible;"/>
		</clipPath>
		<path class="st15" d="M338,60.9h-1.8c-4.9,0-11.9,0.6-11.9,5.2c0,3,2.8,3.9,5.4,3.9c5.3,0,8.2-3,8.2-8V60.9z M338.1,71.1h-0.2
			c-1.6,2.7-5.2,4.7-9.7,4.7c-5,0-11.7-2.4-11.7-9.6c0-9.3,11.7-10.5,21.4-10.5v-0.8c0-3.8-3.2-5.7-7.1-5.7c-3.3,0-6.5,1.6-8.5,3.6
			l-4-4.7c3.5-3.2,8.4-4.9,13.2-4.9c11.1,0,13.9,6.9,13.9,13.1v18.9h-7.3V71.1z"/>
	</g>
</g>
<g>
	<defs>
		<rect id="SVGID_33_" x="0.7" y="0.4" width="482.9" height="102.6"/>
	</defs>
	<clipPath id="SVGID_34_">
		<use xlink:href="#SVGID_33_"  style="overflow:visible;"/>
	</clipPath>
	<g class="st16">
		<defs>
			<rect id="SVGID_35_" x="0.7" y="0.4" width="482.9" height="102.6"/>
		</defs>
		<clipPath id="SVGID_36_">
			<use xlink:href="#SVGID_35_"  style="overflow:visible;"/>
		</clipPath>
		<path class="st17" d="M348.4,50.3V44h5.4v-9h7.7v9h7.8v6.2h-7.8v14.4c0,2.8,0.6,4.8,4.1,4.8c1,0,2.4-0.2,3.3-0.6l0.3,6.1
			c-1.4,0.5-3.4,0.8-5.2,0.8c-8.2,0-10.1-5-10.1-11V50.3H348.4"/>
	</g>
</g>
<g>
	<defs>
		<rect id="SVGID_37_" x="0.7" y="0.4" width="482.9" height="102.6"/>
	</defs>
	<clipPath id="SVGID_38_">
		<use xlink:href="#SVGID_37_"  style="overflow:visible;"/>
	</clipPath>
	<g class="st18">
		<defs>
			<rect id="SVGID_39_" x="0.7" y="0.4" width="482.9" height="102.6"/>
		</defs>
		<clipPath id="SVGID_40_">
			<use xlink:href="#SVGID_39_"  style="overflow:visible;"/>
		</clipPath>
		<path class="st19" d="M375.1,75.1h7.8V44h-7.8V75.1z M378.9,28.8c2.9,0,5.1,2,5.1,4.7s-2.2,4.7-5.1,4.7c-2.9,0-4.9-2.2-4.9-4.7
			S376.1,28.8,378.9,28.8"/>
	</g>
</g>
<g>
	<defs>
		<rect id="SVGID_41_" x="0.7" y="0.4" width="482.9" height="102.6"/>
	</defs>
	<clipPath id="SVGID_42_">
		<use xlink:href="#SVGID_41_"  style="overflow:visible;"/>
	</clipPath>
	<g class="st20">
		<defs>
			<rect id="SVGID_43_" x="0.7" y="0.4" width="482.9" height="102.6"/>
		</defs>
		<clipPath id="SVGID_44_">
			<use xlink:href="#SVGID_43_"  style="overflow:visible;"/>
		</clipPath>
		<path class="st21" d="M404.6,69.5c6.2,0,9-5.2,9-10.1c0-4.9-2.9-10-9-10c-6.2,0-9,5.1-9,10C395.6,64.3,398.4,69.5,404.6,69.5
			 M404.6,43.1c9.4,0,16.9,6.5,16.9,16.3c0,9.8-7.5,16.6-16.9,16.6c-9.4,0-16.9-6.8-16.9-16.6C387.7,49.7,395.2,43.1,404.6,43.1"/>
	</g>
</g>
<g>
	<defs>
		<rect id="SVGID_45_" x="0.7" y="0.4" width="482.9" height="102.6"/>
	</defs>
	<clipPath id="SVGID_46_">
		<use xlink:href="#SVGID_45_"  style="overflow:visible;"/>
	</clipPath>
	<g class="st22">
		<defs>
			<rect id="SVGID_47_" x="0.7" y="0.4" width="482.9" height="102.6"/>
		</defs>
		<clipPath id="SVGID_48_">
			<use xlink:href="#SVGID_47_"  style="overflow:visible;"/>
		</clipPath>
		<path class="st23" d="M426.3,44h7.4v5h0.1c1.4-3.1,5.1-5.9,9.7-5.9c8.1,0,11.5,6.2,11.5,12.6v19.4h-7.8V57.9
			c0-3.7-0.8-8.3-5.8-8.3c-4.9,0-7.3,4.3-7.3,8.4v17.1h-7.8V44"/>
	</g>
</g>
<g>
	<defs>
		<rect id="SVGID_49_" x="0.7" y="0.4" width="482.9" height="102.6"/>
	</defs>
	<clipPath id="SVGID_50_">
		<use xlink:href="#SVGID_49_"  style="overflow:visible;"/>
	</clipPath>
	<g class="st24">
		<defs>
			<rect id="SVGID_51_" x="0.7" y="0.4" width="482.9" height="102.6"/>
		</defs>
		<clipPath id="SVGID_52_">
			<use xlink:href="#SVGID_51_"  style="overflow:visible;"/>
		</clipPath>
		<path class="st25" d="M45.1,49.8L22.3,36.4l22.8-14.5L45.1,49.8z M20.9,65.6l24.2-10.2l0,24.1L20.9,65.6z M32.8,85.8L20.7,69.5
			l23.2,13.3L32.8,85.8z M19.8,38.8l23.4,13.7L17.8,63.2L19.8,38.8z M36.9,17.7l6,1.5L26.6,29.5L36.9,17.7z M47.1,16.7L36.9,14
			c-0.8-0.2-1.6,0.1-2.1,0.7L17.1,35.2c-0.3,0.4-0.5,0.9-0.6,1.4l-2.3,29.1c0,0.5,0.1,1.1,0.5,1.6l15.9,21.5c0.4,0.5,1,0.8,1.7,0.8
			c0.2,0,0.4,0,0.6-0.1l14.4-4c0.9-0.2,1.5-1.1,1.5-2l0-29.5l0-35.3C48.7,17.7,48,16.9,47.1,16.7"/>
	</g>
</g>
<g>
	<defs>
		<path id="SVGID_53_" d="M20.7,69.5l23.2,13.3l-11.1,3L20.7,69.5z M20.9,65.6l24.2-10.2l0,24.1L20.9,65.6z M19.8,38.8l23.4,13.7
			L17.8,63.2L19.8,38.8z M22.3,36.4l22.8-14.5l0,27.9L22.3,36.4z M36.9,17.7l6,1.5L26.6,29.5L36.9,17.7z M34.7,14.7L17.1,35.2
			c-0.3,0.4-0.5,0.9-0.6,1.4l-2.3,29.1c0,0.5,0.1,1.1,0.5,1.6l15.9,21.5c0.4,0.5,1,0.8,1.7,0.8c0.2,0,0.4,0,0.6-0.1l14.4-4
			c0.9-0.2,1.5-1.1,1.5-2l0-29.5l0-35.3c0-0.9-0.6-1.8-1.5-2L36.9,14c-0.2,0-0.3-0.1-0.5-0.1C35.8,13.9,35.1,14.2,34.7,14.7"/>
	</defs>
	<clipPath id="SVGID_54_">
		<use xlink:href="#SVGID_53_"  style="overflow:visible;"/>
	</clipPath>
	<g class="st26">
		<defs>
			<rect id="SVGID_55_" x="0.7" y="0.4" width="482.9" height="102.6"/>
		</defs>
		<clipPath id="SVGID_56_">
			<use xlink:href="#SVGID_55_"  style="overflow:visible;"/>
		</clipPath>
		<rect x="0.7" y="0.4" class="st27" width="61.5" height="102.6"/>
	</g>
</g>
<g>
	<defs>
		<rect id="SVGID_57_" x="0.7" y="0.4" width="482.9" height="102.6"/>
	</defs>
	<clipPath id="SVGID_58_">
		<use xlink:href="#SVGID_57_"  style="overflow:visible;"/>
	</clipPath>
	<g class="st28">
		<defs>
			<rect id="SVGID_59_" x="0.7" y="0.4" width="482.9" height="102.6"/>
		</defs>
		<clipPath id="SVGID_60_">
			<use xlink:href="#SVGID_59_"  style="overflow:visible;"/>
		</clipPath>
		<path class="st29" d="M59.9,52.5l23.4-13.7l1.9,24.4L59.9,52.5z M70.3,85.8l-11.1-3l23.2-13.3L70.3,85.8z M58,55.4l24.2,10.2
			L58,79.5L58,55.4z M80.8,36.4L58,49.8l0-27.9L80.8,36.4z M66.2,17.7l10.3,11.8L60.2,19.2L66.2,17.7z M86,35.2L68.3,14.7
			c-0.5-0.6-1.4-0.9-2.1-0.7l-10.3,2.7c-0.9,0.2-1.5,1.1-1.5,2l0,35.3l0,29.5c0,0.9,0.6,1.7,1.5,2l14.4,4c0.2,0.1,0.4,0.1,0.6,0.1
			c0.7,0,1.3-0.3,1.7-0.8l15.9-21.5c0.3-0.4,0.5-1,0.5-1.6l-2.3-29.1C86.6,36.1,86.3,35.5,86,35.2"/>
	</g>
</g>
<g>
	<defs>
		<path id="SVGID_61_" d="M59.1,82.8l23.2-13.3L70.3,85.8L59.1,82.8z M58,55.4l24.2,10.2L58,79.5L58,55.4z M59.9,52.5l23.4-13.7
			l1.9,24.4L59.9,52.5z M58,21.8l22.8,14.5L58,49.8L58,21.8z M60.2,19.2l6-1.5l10.3,11.8L60.2,19.2z M66.2,14l-10.3,2.7
			c-0.9,0.2-1.5,1.1-1.5,2l0,35.3l0,29.5c0,0.9,0.6,1.7,1.5,2l14.4,4c0.2,0.1,0.4,0.1,0.6,0.1c0.7,0,1.3-0.3,1.7-0.8l15.9-21.5
			c0.3-0.4,0.5-1,0.5-1.6l-2.3-29.1c0-0.5-0.3-1-0.6-1.4L68.3,14.7c-0.4-0.5-1-0.7-1.6-0.7C66.5,13.9,66.4,14,66.2,14"/>
	</defs>
	<clipPath id="SVGID_62_">
		<use xlink:href="#SVGID_61_"  style="overflow:visible;"/>
	</clipPath>
	<g class="st30">
		<defs>
			<rect id="SVGID_63_" x="0.7" y="0.4" width="482.9" height="102.6"/>
		</defs>
		<clipPath id="SVGID_64_">
			<use xlink:href="#SVGID_63_"  style="overflow:visible;"/>
		</clipPath>
		<rect x="40.9" y="0.4" class="st31" width="61.5" height="102.6"/>
	</g>
</g>
<g>
	<defs>
		<rect id="SVGID_65_" x="0.7" y="0.4" width="482.9" height="102.6"/>
	</defs>
	<clipPath id="SVGID_66_">
		<use xlink:href="#SVGID_65_"  style="overflow:visible;"/>
	</clipPath>
	<g class="st32">
		<defs>
			<rect id="SVGID_67_" x="0.7" y="0.4" width="482.9" height="102.6"/>
		</defs>
		<clipPath id="SVGID_68_">
			<use xlink:href="#SVGID_67_"  style="overflow:visible;"/>
		</clipPath>
		<path class="st33" d="M464,39c0.3,0,0.7-0.1,1-0.2c0.3-0.1,0.5-0.4,0.5-0.8c0-0.4-0.1-0.6-0.4-0.7c-0.3-0.1-0.6-0.2-0.9-0.2h-1.1
			V39H464z M461.9,36.1h2.3c0.3,0,0.6,0,0.9,0.1c0.3,0.1,0.6,0.2,0.8,0.3c0.2,0.2,0.4,0.4,0.6,0.6c0.1,0.2,0.2,0.5,0.2,0.9
			c0,0.5-0.1,0.9-0.4,1.2c-0.3,0.3-0.6,0.5-1.1,0.6l1.8,2.9h-1.5l-1.6-2.8h-0.9v2.8h-1.2V36.1z M459.2,39.5c0,0.7,0.1,1.3,0.4,1.9
			c0.3,0.6,0.6,1.1,1.1,1.6c0.4,0.5,1,0.8,1.6,1.1c0.6,0.3,1.3,0.4,1.9,0.4c0.7,0,1.3-0.1,1.9-0.4c0.6-0.3,1.1-0.6,1.6-1.1
			c0.4-0.5,0.8-1,1.1-1.6c0.3-0.6,0.4-1.2,0.4-1.9c0-0.7-0.1-1.3-0.4-1.9c-0.3-0.6-0.6-1.1-1.1-1.6c-0.5-0.4-1-0.8-1.6-1.1
			c-0.6-0.3-1.3-0.4-1.9-0.4c-0.7,0-1.3,0.1-1.9,0.4c-0.6,0.3-1.1,0.6-1.6,1.1c-0.4,0.4-0.8,1-1.1,1.6
			C459.3,38.1,459.2,38.8,459.2,39.5 M458.3,39.5c0-0.8,0.2-1.6,0.5-2.3c0.3-0.7,0.7-1.3,1.3-1.9c0.5-0.5,1.2-0.9,1.9-1.3
			c0.7-0.3,1.5-0.5,2.3-0.5s1.6,0.2,2.3,0.5c0.7,0.3,1.3,0.7,1.9,1.3c0.5,0.5,1,1.1,1.3,1.9c0.3,0.7,0.5,1.5,0.5,2.3
			c0,0.8-0.2,1.6-0.5,2.3c-0.3,0.7-0.7,1.3-1.3,1.9c-0.5,0.5-1.2,0.9-1.9,1.2c-0.7,0.3-1.5,0.5-2.3,0.5s-1.6-0.2-2.3-0.5
			c-0.7-0.3-1.3-0.7-1.9-1.2c-0.5-0.5-1-1.1-1.3-1.9C458.4,41,458.3,40.3,458.3,39.5"/>
	</g>
</g>
</svg>
