<svg id="Layer_1" data-name="Layer 1" xmlns="http://www.w3.org/2000/svg" viewBox="0 0 441 70.81"><title>Logo Konrad</title><path d="M95.78,90h-18a1.2,1.2,0,0,1-.93-.37Q64.25,77,51.61,64.35L25.49,38.19a1.08,1.08,0,0,1-.35-.84c0-5.87,0-11.74,0-17.62V19.3L95.87,89.82Z" transform="translate(-25.14 -19.17)"/><path d="M254.4,31.07l.5,0H260a.87.87,0,0,1,.73.33q6.36,7.27,12.73,14.53,7,8,14,16c.09.11.19.21.36.39V32.09h8.79V78c-.07,0-.13,0-.18,0-1.88,0-3.75,0-5.62,0a.89.89,0,0,1-.55-.3c-2.3-2.61-4.58-5.23-6.87-7.84l-8-9.13L263.7,47.33l-.54-.59V77.13H254.4Z" transform="translate(-25.14 -19.17)"/><path d="M211.58,78.13a24.32,24.32,0,0,1-16.18-5.77,22.37,22.37,0,0,1-7.7-13.68,24.08,24.08,0,0,1,1.07-12.22,22.63,22.63,0,0,1,4.66-7.71,23.35,23.35,0,0,1,13.71-7.41A24.07,24.07,0,0,1,226.54,36a22.46,22.46,0,0,1,8.9,15.84,22.69,22.69,0,0,1-5.56,18.09,23.47,23.47,0,0,1-15.3,8c-.53.06-1.06.1-1.59.13S211.93,78.12,211.58,78.13Zm-.46-8a14.87,14.87,0,0,0,11.36-5,15.33,15.33,0,0,0,4-11.44,14.94,14.94,0,0,0-5.29-10.93A14.16,14.16,0,0,0,208,39.48a15.34,15.34,0,0,0-11.53,14.6,15.14,15.14,0,0,0,2,8.19A14.8,14.8,0,0,0,211.12,70.13Z" transform="translate(-25.14 -19.17)"/><path d="M429,32h.91c4,0,8.06,0,12.09,0A27.46,27.46,0,0,1,453,34.2a20.68,20.68,0,0,1,11.7,12.35,22.56,22.56,0,0,1-1.08,18.13A21.61,21.61,0,0,1,452,75.44,20.81,20.81,0,0,1,444.73,77c-5.16.11-10.32.09-15.48.12a1.92,1.92,0,0,1-.3,0Zm8.84,37.45a41.44,41.44,0,0,0,7.65-.38A12.48,12.48,0,0,0,454,63.78c3.74-5.38,4.11-11.06,1-16.85a12.85,12.85,0,0,0-7.91-6.45,29,29,0,0,0-9.19-.82s-.05,0-.1.07Z" transform="translate(-25.14 -19.17)"/><path d="M337.49,58.12l14.15,18.94c-.24,0-.39,0-.54,0h-9.92a.73.73,0,0,1-.71-.36c-2.12-3.18-4.25-6.34-6.38-9.51-1.77-2.63-3.55-5.26-5.3-7.9-.35-.53-.79-.26-1.26-.34V77.06h-8.82V32h.49c4.32,0,8.65,0,13,0A21.51,21.51,0,0,1,340,33.35a11.37,11.37,0,0,1,7.14,8.06,13.87,13.87,0,0,1-2,12.19A11,11,0,0,1,338,58Zm-9.95-5.4a23.33,23.33,0,0,0,5.92-.37,6.35,6.35,0,0,0,4.42-3.13,7.37,7.37,0,0,0,.55-5.08,5.13,5.13,0,0,0-2.54-3.64,10.49,10.49,0,0,0-2.49-1,22.68,22.68,0,0,0-5.33-.38c-.45,0-.57.13-.57.57,0,4.16,0,8.32,0,12.48C327.51,52.34,327.53,52.5,327.54,52.72Z" transform="translate(-25.14 -19.17)"/><path d="M174.28,32c-6.39,7-12.72,13.88-19.07,20.83,6.66,8.06,13.33,16.11,20.06,24.24-.23,0-.38,0-.52,0H164.1a.91.91,0,0,1-.65-.28q-4.86-6.06-9.7-12.15l-5.91-7.44-.26-.3a9.58,9.58,0,0,0-.83.87,1.11,1.11,0,0,0-.14.63q0,9,0,17.91v.72h-8.81V32h8.8V50.81l.11,0c.36-.41.73-.81,1.09-1.23l7.69-8.85,7.44-8.56a.83.83,0,0,1,.52-.25H174Z" transform="translate(-25.14 -19.17)"/><path d="M412,77.58h-.56c-2.8,0-5.61,0-8.41,0a.62.62,0,0,1-.7-.48c-1.16-2.88-2.33-5.75-3.48-8.63a.56.56,0,0,0-.63-.43q-8.73,0-17.47,0a.59.59,0,0,0-.63.43c-1.23,2.87-2.47,5.73-3.69,8.6a.72.72,0,0,1-.79.52c-2.74,0-5.48,0-8.22,0h-.61c.38-.9.71-1.71,1.06-2.52L375.4,57.3l9.69-22.83c.38-.88.76-1.77,1.13-2.66a.43.43,0,0,1,.48-.34c2,0,3.94,0,5.9,0a.51.51,0,0,1,.57.37q2.64,6.45,5.31,12.89,3.13,7.59,6.25,15.17,3.58,8.68,7.18,17.39C411.94,77.36,412,77.44,412,77.58ZM383.11,60.87h12.81l-6.31-16.1Z" transform="translate(-25.14 -19.17)"/><path d="M51.41,19.17H90L70.69,38.46Z" transform="translate(-25.14 -19.17)"/><path d="M50.93,90H25.19V64.21Z" transform="translate(-25.14 -19.17)"/></svg>